{
  "accessors": [
    {
      "bufferView": 2,
      "componentType": 5126,
      "count": 22144,
      "max": [
        2.062731981277466,
        2.0655713081359863,
        2.023756742477417
      ],
      "min": [
        -1.9149826765060425,
        -1.976944923400879,
        -1.9539579153060913
      ],
      "type": "VEC3"
    },
    {
      "bufferView": 2,
      "byteOffset": 265728,
      "componentType": 5126,
      "count": 22144,
      "max": [
        0.999930739402771,
        0.9999961853027344,
        0.9999960660934448
      ],
      "min": [
        -0.9999804496765137,
        -0.999862551689148,
        -0.9999802112579346
      ],
      "type": "VEC3"
    },
    {
      "bufferView": 3,
      "componentType": 5126,
      "count": 22144,
      "max": [
        0.9998160004615784,
        0.9999701976776123,
        0.9999998807907104,
        1.0
      ],
      "min": [
        -0.9999337792396545,
        -0.9996178150177002,
        -0.9988267421722412,
        -1.0
      ],
      "type": "VEC4"
    },
    {
      "bufferView": 1,
      "componentType": 5126,
      "count": 22144,
      "max": [
        0.9999008774757385,
        0.592460036277771
      ],
      "min": [
        9.916853014146909e-05,
        9.916853014146909e-05
      ],
      "type": "VEC2"
    },
    {
      "bufferView": 0,
      "componentType": 5125,
      "count": 130464,
      "type": "SCALAR"
    }
  ],
  "asset": {
    "extras": {
      "author": "Refref1990 (https://sketchfab.com/refref1990)",
      "license": "CC-BY-4.0 (http://creativecommons.org/licenses/by/4.0/)",
      "source": "https://sketchfab.com/3d-models/corona-virus-2e7ffcc5d8df41bfa6f7ee666237757c",
      "title": "Corona Virus"
    },
    "generator": "Sketchfab-12.66.0",
    "version": "2.0"
  },
  "bufferViews": [
    {
      "buffer": 0,
      "byteLength": 521856,
      "name": "floatBufferViews",
      "target": 34963
    },
    {
      "buffer": 0,
      "byteLength": 177152,
      "byteOffset": 521856,
      "byteStride": 8,
      "name": "floatBufferViews",
      "target": 34962
    },
    {
      "buffer": 0,
      "byteLength": 531456,
      "byteOffset": 699008,
      "byteStride": 12,
      "name": "floatBufferViews",
      "target": 34962
    },
    {
      "buffer": 0,
      "byteLength": 354304,
      "byteOffset": 1230464,
      "byteStride": 16,
      "name": "floatBufferViews",
      "target": 34962
    }
  ],
  "buffers": [
    {
      "byteLength": 1584768,
      "uri": "scene.bin"
    }
  ],
  "images": [
    {
      "uri": "textures/Material_baseColor.png"
    },
    {
      "uri": "textures/Material_metallicRoughness.png"
    },
    {
      "uri": "textures/Material_normal.png"
    }
  ],
  "materials": [
    {
      "doubleSided": true,
      "emissiveFactor": [
        0.013047393,
        0.057345206,
        0.276069393
      ],
      "name": "Material",
      "normalTexture": {
        "index": 2
      },
      "pbrMetallicRoughness": {
        "baseColorTexture": {
          "index": 0
        },
        "metallicRoughnessTexture": {
          "index": 1
        }
      }
    }
  ],
  "meshes": [
    {
      "name": "Corona VIrus_Material_0",
      "primitives": [
        {
          "attributes": {
            "NORMAL": 1,
            "POSITION": 0,
            "TANGENT": 2,
            "TEXCOORD_0": 3
          },
          "indices": 4,
          "material": 0,
          "mode": 4
        }
      ]
    }
  ],
  "nodes": [
    {
      "children": [
        1
      ],
      "matrix": [
        0.0032955692149698734,
        0.0,
        0.0,
        0.0,
        0.0,
        7.317633643410811e-19,
        -0.0032955692149698734,
        0.0,
        0.0,
        0.0032955692149698734,
        7.317633643410811e-19,
        0.0,
        0.0,
        0.0,
        0.0,
        1.0
      ],
      "name": "Sketchfab_model"
    },
    {
      "children": [
        2
      ],
      "matrix": [
        1.0,
        0.0,
        0.0,
        0.0,
        0.0,
        0.0,
        1.0,
        0.0,
        0.0,
        -1.0,
        0.0,
        0.0,
        0.0,
        0.0,
        0.0,
        1.0
      ],
      "name": "29beeae3713444b7852ea287ca65e5ed.fbx"
    },
    {
      "children": [
        3
      ],
      "name": "RootNode"
    },
    {
      "children": [
        4
      ],
      "matrix": [
        100.0,
        0.0,
        0.0,
        0.0,
        0.0,
        -1.629206793918314e-05,
        -99.99999999999868,
        0.0,
        0.0,
        99.99999999999868,
        -1.629206793918314e-05,
        0.0,
        0.0,
        0.0,
        0.0,
        1.0
      ],
      "name": "Corona VIrus"
    },
    {
      "mesh": 0,
      "name": "Corona VIrus_Material_0"
    }
  ],
  "samplers": [
    {
      "magFilter": 9729,
      "minFilter": 9987,
      "wrapS": 10497,
      "wrapT": 10497
    }
  ],
  "scene": 0,
  "scenes": [
    {
      "name": "Sketchfab_Scene",
      "nodes": [
        0
      ]
    }
  ],
  "textures": [
    {
      "sampler": 0,
      "source": 0
    },
    {
      "sampler": 0,
      "source": 1
    },
    {
      "sampler": 0,
      "source": 2
    }
  ]
}
